<svg xmlns="http://www.w3.org/2000/svg" viewBox="0 0 64 80" x="0px" y="0px">
  <g data-name="14 Model S Tesla Car">
    <path
      d="M21,37h8.764l1.789.9a1,1,0,0,0,.894,0l1.789-.9H42a1,1,0,0,0,0-2H34a1,1,0,0,0-.447.1L32,35.882,30.447,35.1A1,1,0,0,0,30,35H21a1,1,0,0,0,0,2Z"/>
    <path
      d="M55.891,38.006l-6.079.671A5.049,5.049,0,0,0,46.981,40H17.018a5.056,5.056,0,0,0-2.838-1.324l-6.071-.67a1.011,1.011,0,0,0-.846.318,1,1,0,0,0-.243.872l.419,2.1a5.049,5.049,0,0,0,4.381,4.026l6.071.67A.993.993,0,0,0,19,45H45a1,1,0,0,0,1.105.994l6.076-.671A5.046,5.046,0,0,0,56.561,41.3l.419-2.1a1,1,0,0,0-1.089-1.19ZM45.639,42l-.007.022a5.425,5.425,0,0,0-.193.682l-.059.3H18.62l-.061-.3a5.182,5.182,0,0,0-.19-.671L18.362,42ZM12.044,43.337A3.052,3.052,0,0,1,9.4,40.9l-.151-.759,4.7.519a3.053,3.053,0,0,1,1.929,1A3.136,3.136,0,0,1,16.6,43.1l.151.759ZM54.6,40.9a3.049,3.049,0,0,1-2.639,2.435l-4.712.52L47.4,43.1a3.149,3.149,0,0,1,.721-1.441l0,0a3.05,3.05,0,0,1,1.918-1l4.712-.52Z"/>
    <path
      d="M61,23.923v-.846A2.08,2.08,0,0,0,58.923,21H57.776a2.075,2.075,0,0,0-1.97,1.421l-.02.059-1.877-5.164a13.7,13.7,0,0,0-3.2-5.023,1,1,0,0,0-.6-.287C50.02,12,40.952,11,32,11s-18.02,1-18.11,1.006a1,1,0,0,0-.6.287,13.693,13.693,0,0,0-3.2,5.025L8.214,22.48l-.02-.06A2.075,2.075,0,0,0,6.224,21H5.077A2.08,2.08,0,0,0,3,23.077v.846A2.08,2.08,0,0,0,5.077,26H6.538c-.08.091-.141.19-.228.277l-2.427,2.6A2.985,2.985,0,0,0,3,31V51a1.979,1.979,0,0,0,2,2h5.938a2.031,2.031,0,0,0,2.031-2.021L12.99,49h38l-.02,1.969A2.033,2.033,0,0,0,53,53h5.938a2.032,2.032,0,0,0,2.031-2.025L61,46.006V30.83a2.985,2.985,0,0,0-.883-2.127l-2.45-2.45c-.078-.078-.135-.171-.207-.253h1.463A2.08,2.08,0,0,0,61,23.923ZM57.776,23h1.147a.076.076,0,0,1,.077.077v.846a.076.076,0,0,1-.077.077h-1.5ZM11.97,18a11.7,11.7,0,0,1,2.495-4.048C16.216,13.774,24.153,13,32,13s15.784.775,17.535.956A11.709,11.709,0,0,1,52.03,18l2.181,6H9.789ZM5,23.923v-.846A.076.076,0,0,1,5.077,23l1.221.054L6.612,24H5.077A.076.076,0,0,1,5,23.923ZM10.938,51H5V48.816A2.966,2.966,0,0,0,6,49h4.979Zm42.031-.021L52.99,49H58a2.976,2.976,0,0,0,.965-.173L58.938,51ZM58.7,30.117a1,1,0,0,1,.3.713V46a1,1,0,0,1-1,1H6a1,1,0,0,1-1-1V31a1.026,1.026,0,0,1,.32-.737l2.427-2.6a6.961,6.961,0,0,0,.791-.966,52.854,52.854,0,0,1,4.7,4.316A12.212,12.212,0,0,0,8,29.8a1,1,0,0,0-1,1V32c0,1.095,0,4,2.694,4.249L17.909,37c.03,0,.061,0,.091,0a.978.978,0,0,0,.331-.064c.013,0,.027,0,.04-.007s.025-.02.04-.027a.99.99,0,0,0,.27-.176.3.3,0,0,0,.026-.021.957.957,0,0,0,.169-.223.514.514,0,0,0,.02-.055.894.894,0,0,0,.037-.1,1,1,0,0,0,.053-.245.891.891,0,0,0,.007-.1.994.994,0,0,0-.063-.345v-.007c-1.413-3.533-5.513-7.418-8.1-9.629H53.176c-2.592,2.211-6.692,6.1-8.105,9.629v.007a.994.994,0,0,0-.063.345.891.891,0,0,0,.007.1.986.986,0,0,0,.053.244.838.838,0,0,0,.037.1.514.514,0,0,0,.02.055.981.981,0,0,0,.168.223c.008.008.019.013.027.021a1,1,0,0,0,.27.176c.015.007.024.02.04.027s.027,0,.04.007A.978.978,0,0,0,46,37c.03,0,.061,0,.091,0l8.215-.747C57,36,57,33.1,57,32V30.8a1,1,0,0,0-1-1,12.2,12.2,0,0,0-5.237,1.219,52.818,52.818,0,0,1,4.7-4.314,6.933,6.933,0,0,0,.79.965ZM15.345,34.755l-5.469-.5C9.506,34.224,9,34.178,9,32v-.149A12.172,12.172,0,0,1,15.345,34.755Zm33.31,0A12.172,12.172,0,0,1,55,31.851V32c0,2.178-.506,2.224-.876,2.257Z"/>
  </g>
</svg>
