<svg xmlns="http://www.w3.org/2000/svg" data-name="Layer 1" viewBox="0 0 100 125" x="0px" y="0px">
  <g>
    <path
      d="M65,56.64a1,1,0,0,0,.85,1.13H66a1,1,0,0,0,1-.86c.1-.67,2.31-16.59-3.28-22.27a1,1,0,1,0-1.43,1.4C67.18,41,65,56.49,65,56.64Z"/>
    <path
      d="M79,65.79H76v-21A26.3,26.3,0,0,0,57,19.47a.93.93,0,0,0,0-.11v-.14a7,7,0,0,0-14,0v.14a.93.93,0,0,0,0,.11A26.3,26.3,0,0,0,24,44.8v21H21a6,6,0,1,0,0,12H39.05a11,11,0,0,0,21.9,0H79a6,6,0,0,0,0-12ZM50,14.21A5,5,0,0,1,55,19a25.58,25.58,0,0,0-10,0A5,5,0,0,1,50,14.21Zm0,71.57a9,9,0,0,1-8.94-8H58.94A9,9,0,0,1,50,85.79Zm29-10H21a4,4,0,0,1,0-8H32a1,1,0,1,0,0-2H26v-21a24,24,0,1,1,48,0v21H43a1,1,0,0,0,0,2H79a4,4,0,0,1,0,8Z"/>
  </g>
</svg>
