<svg xmlns="http://www.w3.org/2000/svg" xmlns:xlink="http://www.w3.org/1999/xlink" version="1.1" x="0px" y="0px"
     viewBox="0 0 100 125" style="enable-background:new 0 0 100 100;" xml:space="preserve"><g><g><g><path style="" d="M25.675,81.54V68.026h-4.307c-2.374,0-4.307-1.932-4.307-4.307V26.395     c0-2.374,1.932-4.307,4.307-4.307h60.294c2.374,0,4.307,1.932,4.307,4.307v37.325c0,2.374-1.932,4.307-4.307,4.307H39.19     L25.675,81.54z M21.369,24.959c-0.792,0-1.436,0.643-1.436,1.436v37.325c0,0.792,0.643,1.436,1.436,1.436h7.178v9.455     l9.455-9.455h43.661c0.792,0,1.436-0.643,1.436-1.436V26.395c0-0.792-0.643-1.436-1.436-1.436H21.369z" fill="#231F20"/></g><g><circle style="" cx="40.031" cy="45.057" r="2.871" fill="#231F20"/></g><g><circle style="" cx="63" cy="45.057" r="2.871" fill="#231F20"/></g><g><circle style="" cx="51.516" cy="45.057" r="2.871" fill="#231F20"/></g></g></g></svg>
