<svg xmlns="http://www.w3.org/2000/svg" xmlns:xlink="http://www.w3.org/1999/xlink" version="1.1" x="0px" y="0px"
     viewBox="0 0 512 640" style="enable-background:new 0 0 512 512;" xml:space="preserve"><g><g><g><path d="M256,363c-59,0-107-48-107-107s48-107,107-107s107,48,107,107S315,363,256,363z M256,163c-51.28,0-93,41.72-93,93     s41.72,93,93,93s93-41.72,93-93S307.28,163,256,163z"/></g><g><path d="M274.844,492.999h-37.688c-15.525,0-28.156-12.631-28.156-28.156v-27.706c0-6.074-3.872-11.462-9.633-13.405     c-7.459-2.516-14.824-5.566-21.887-9.066c-5.47-2.713-12.032-1.646-16.326,2.649l-19.595,19.595     c-5.317,5.317-12.388,8.247-19.909,8.247s-14.591-2.93-19.909-8.248L75.09,410.26c-5.318-5.318-8.247-12.389-8.247-19.909     s2.929-14.591,8.247-19.909l19.594-19.594c4.296-4.296,5.361-10.857,2.65-16.327c-3.498-7.06-6.549-14.423-9.067-21.886     c-1.943-5.764-7.33-9.635-13.405-9.635H47.156C31.631,303,19,290.369,19,274.844v-37.688C19,221.631,31.631,209,47.156,209     h27.706c6.075,0,11.462-3.871,13.405-9.633c2.515-7.46,5.566-14.824,9.067-21.888c2.711-5.47,1.646-12.031-2.65-16.327     L75.09,141.559c-5.318-5.318-8.247-12.388-8.247-19.909s2.929-14.591,8.247-19.909l26.65-26.65     c5.318-5.318,12.389-8.247,19.909-8.247c7.521,0,14.591,2.929,19.909,8.247l19.594,19.595c4.295,4.295,10.857,5.361,16.326,2.65     c7.062-3.5,14.425-6.551,21.888-9.068c5.762-1.943,9.633-7.33,9.633-13.405V47.156C209,31.63,221.631,19,237.156,19h37.688     C290.369,19,303,31.63,303,47.156v27.706c0,6.075,3.87,11.462,9.631,13.404c7.468,2.519,14.832,5.57,21.89,9.069     c5.468,2.709,12.03,1.645,16.326-2.65L370.44,75.09c5.319-5.318,12.39-8.247,19.91-8.247s14.591,2.929,19.909,8.247l26.65,26.651     c5.317,5.318,8.247,12.389,8.247,19.909c0,7.521-2.93,14.592-8.248,19.91l-19.593,19.594c-4.297,4.295-5.361,10.856-2.65,16.327     c3.5,7.063,6.551,14.427,9.066,21.887c1.943,5.761,7.331,9.632,13.405,9.632h27.706C480.369,209,493,221.63,493,237.156v37.688     c0,7.521-2.929,14.592-8.247,19.909c-5.317,5.317-12.388,8.246-19.908,8.246c-0.001,0-0.002,0-0.003,0h-27.705     c-6.074,0-11.462,3.871-13.405,9.633c-2.514,7.455-5.564,14.818-9.066,21.887c-2.712,5.472-1.646,12.032,2.649,16.328     l19.595,19.594c5.318,5.318,8.247,12.39,8.247,19.91s-2.93,14.591-8.248,19.909l-26.648,26.649     c-5.318,5.317-12.389,8.247-19.909,8.247s-14.592-2.93-19.91-8.247l-19.594-19.594c-4.295-4.297-10.856-5.361-16.327-2.65     c-7.061,3.499-14.424,6.549-21.888,9.066c-5.761,1.943-9.632,7.331-9.632,13.405v27.706     C303,480.368,290.369,492.999,274.844,492.999z M171.151,399.177c4.256,0,8.547,0.963,12.545,2.943     c6.502,3.223,13.28,6.03,20.146,8.346C215.301,414.331,223,425.05,223,437.137v27.706c0,7.806,6.351,14.156,14.156,14.156h37.688     c7.806,0,14.156-6.351,14.156-14.156v-27.706c0-12.087,7.698-22.806,19.157-26.671c6.869-2.317,13.647-5.125,20.146-8.346     c10.858-5.381,23.896-3.253,32.444,5.296l19.594,19.593c2.674,2.675,6.229,4.147,10.01,4.147c3.78,0,7.335-1.473,10.009-4.146     l26.649-26.65c2.675-2.674,4.147-6.228,4.147-10.009s-1.473-7.336-4.147-10.01l-19.594-19.594     c-8.548-8.548-10.676-21.586-5.294-32.444c3.223-6.506,6.03-13.284,8.345-20.146c3.865-11.459,14.583-19.158,26.671-19.158     h27.706h0.001c3.782,0,7.337-1.472,10.01-4.146c2.674-2.674,4.146-6.229,4.146-10.01v-37.688c0-7.806-6.351-14.156-14.156-14.156     h-27.706c-12.087,0-22.806-7.699-26.671-19.158c-2.315-6.866-5.123-13.644-8.346-20.145c-5.381-10.859-3.252-23.896,5.296-32.443     l19.593-19.594c2.675-2.674,4.147-6.229,4.147-10.01s-1.473-7.336-4.146-10.01L400.359,84.99     c-2.673-2.674-6.228-4.146-10.009-4.146s-7.336,1.473-10.011,4.146l-19.593,19.594c-8.549,8.549-21.587,10.677-32.444,5.294     c-6.496-3.22-13.273-6.028-20.146-8.346C296.699,97.668,289,86.95,289,74.862V47.156C289,39.35,282.649,33,274.844,33h-37.688     C229.35,33,223,39.35,223,47.156v27.706c0,12.088-7.699,22.807-19.159,26.671c-6.867,2.317-13.645,5.125-20.145,8.346     c-10.857,5.382-23.895,3.254-32.443-5.294L131.659,84.99c-2.674-2.674-6.229-4.146-10.01-4.146s-7.336,1.473-10.01,4.146     l-26.65,26.65c-2.674,2.674-4.146,6.229-4.146,10.01c0,3.781,1.473,7.336,4.146,10.01l19.594,19.594     c8.548,8.547,10.676,21.585,5.294,32.443c-3.222,6.501-6.03,13.278-8.345,20.144C97.668,215.3,86.95,223,74.862,223H47.156     C39.35,223,33,229.351,33,237.156v37.688C33,282.649,39.35,289,47.156,289h27.706c12.088,0,22.807,7.7,26.671,19.16     c2.318,6.868,5.125,13.646,8.345,20.144c5.382,10.857,3.254,23.896-5.294,32.444L84.99,380.341     c-2.674,2.674-4.146,6.229-4.146,10.01s1.473,7.336,4.146,10.009l26.65,26.649c2.674,2.675,6.229,4.147,10.01,4.147     c3.781,0,7.336-1.473,10.009-4.146l19.595-19.595C156.653,402.015,163.848,399.177,171.151,399.177z"/></g></g></g></svg>
